<?xml version="1.0" standalone="no"?><!DOCTYPE svg PUBLIC "-//W3C//DTD SVG 1.1//EN" "http://www.w3.org/Graphics/SVG/1.1/DTD/svg11.dtd"><svg t="1650011207715" class="icon" viewBox="0 0 1024 1024" version="1.1" xmlns="http://www.w3.org/2000/svg" p-id="5149" xmlns:xlink="http://www.w3.org/1999/xlink" width="200" height="200"><defs><style type="text/css">@font-face { font-family: element-icons; src: url("chrome-extension://moombeodfomdpjnpocobemoiaemednkg/fonts/element-icons.woff") format("woff"), url("chrome-extension://moombeodfomdpjnpocobemoiaemednkg/fonts/element-icons.ttf ") format("truetype"); }
</style></defs><path d="M512.1 512.1m-342.8 0a342.8 342.8 0 1 0 685.6 0 342.8 342.8 0 1 0-685.6 0Z" fill="#75AFCC" p-id="5150"></path><path d="M960.1 512.1c0 247.4-200.6 448-448 448s-448-200.6-448-448 200.6-448 448-448 448 200.6 448 448z" fill="#FF4444" p-id="5151"></path><path d="M745.8 746.5V262.8c0-14.7-18.4-18.4-18.4-18.4H356.8c-55.3 0-55.4 51.2-55.4 51.2v471.8c0 10.8 8.8 19.6 19.7 19.6h353.8c10.8 0 19.6-8.8 19.6-19.6l31.5-0.1c21.3 0 19.8-20.8 19.8-20.8z m-30.9-9.7s-3.5 12.8-20.3 12.8V316.1c0-10.9-8.8-19.7-19.6-19.7l-334.8-0.1c0-13.5 20.3-20.4 20.3-20.4h334.1c20.9 0 20.3 18.4 20.3 18.4v442.5z" fill="#FAAF3D" p-id="5152"></path><path d="M714.9 736.8s-3.5 12.8-20.3 12.8V316.1c0-10.9-8.8-19.7-19.6-19.7l-334.8-0.1c0-13.5 20.3-20.4 20.3-20.4h334.1c20.9 0 20.3 18.4 20.3 18.4v442.5z" fill="#FFFFFF" p-id="5153"></path><path d="M634.6 502.5c0 17.3-14 31.2-31.2 31.2H409.3c-17.2 0-31.2-14-31.2-31.2v-85.4c0-17.2 14-31.2 31.2-31.2h194.1c17.2 0 31.2 14 31.2 31.2v85.4z" fill="#0C5054" p-id="5154"></path><path d="M402.4 476.1c0-0.8 0.1-1.8 0.3-2.9 0.2-1.1 0.6-2.1 1.1-3.1 0.7-1.4 1.5-2.8 2.3-4.1 0.9-1.3 1.7-2.5 2.6-3.6s1.8-2.1 2.7-2.9c0.9-0.9 1.8-1.5 2.6-2 0.5-0.3 1-0.7 1.6-1s1.2-0.7 1.7-1c0.6-0.3 1.2-0.5 1.8-0.7s1.2-0.3 1.8-0.3c0.6 0 1.2 0.1 1.7 0.4 0.6 0.2 1 0.6 1.5 1s0.7 0.9 1 1.5 0.4 1.2 0.4 1.8c0 0.5 0 0.8-0.1 1.1s-0.1 0.4-0.2 0.6-0.2 0.2-0.4 0.2h-0.6c-0.3 0-0.6-0.1-0.8-0.2-0.2-0.1-0.3-0.3-0.4-0.5-0.1-0.2-0.2-0.4-0.3-0.7-0.1-0.2-0.1-0.5-0.2-0.7-0.1-0.2-0.2-0.4-0.3-0.5-0.1-0.1-0.3-0.2-0.5-0.2-0.6 0-1.2 0.1-1.9 0.4-0.7 0.3-1.4 0.6-2.1 1-0.7 0.4-1.4 0.9-2.1 1.5-0.7 0.6-1.4 1.1-2 1.7-0.6 0.6-1.2 1.2-1.8 1.7-0.5 0.6-1 1.1-1.4 1.5-0.6 0.7-1.1 1.5-1.6 2.3-0.5 0.8-0.9 1.5-1.2 2.3s-0.6 1.6-0.8 2.4-0.3 1.7-0.3 2.6c0 0.7 0.1 1.3 0.3 1.8 0.2 0.5 0.4 1 0.6 1.4 0.3 0.4 0.6 0.7 1 0.9 0.4 0.2 0.9 0.3 1.5 0.3 1.2 0 2.4-0.1 3.4-0.3 1-0.2 2.1-0.5 3-0.9 1-0.4 1.9-0.9 2.8-1.4s1.9-1.1 2.8-1.7h0.6c0.2 0 0.4 0.1 0.6 0.2 0.2 0.1 0.4 0.2 0.5 0.4 0.2 0.2 0.3 0.3 0.4 0.5 0.1 0.2 0.1 0.4 0.1 0.6 0 0.5-0.2 1-0.6 1.4s-0.9 0.9-1.5 1.4c-0.6 0.4-1.3 0.8-2 1.2-0.7 0.4-1.5 0.7-2.2 1-0.7 0.3-1.4 0.5-2 0.7-0.6 0.2-1.1 0.3-1.5 0.4-0.3 0.1-0.6 0.1-0.9 0.2-0.3 0.1-0.7 0.1-1.1 0.2s-0.9 0.1-1.5 0.2-1.3 0.1-2.1 0.1c-0.5 0-1-0.1-1.4-0.3l-1.2-0.6c-0.3-0.2-0.6-0.5-0.9-0.7s-0.4-0.5-0.6-0.6c-0.9-1-1.5-2-1.9-3-0.1-0.8-0.3-1.9-0.3-3zM427.5 484.7c0-0.2 0-0.4 0.1-0.6 0.1-0.3 0.1-0.5 0.2-0.8 0.1-0.3 0.1-0.6 0.2-0.8 0.1-0.3 0.1-0.5 0.2-0.6l8.9-29c0.1-0.1 0.2-0.2 0.2-0.3 0.1-0.1 0.2-0.1 0.3-0.2s0.3-0.1 0.4-0.1h0.4c0.3 0 0.6 0.1 0.8 0.2 0.2 0.1 0.4 0.3 0.5 0.4l0.3 0.6c0.1 0.2 0.1 0.5 0.1 0.8 0 0.2 0 0.5-0.1 0.7 0 0.3-0.1 0.5-0.1 0.7 0 0.2-0.1 0.5-0.1 0.7s-0.1 0.4-0.1 0.5l-4.5 15.5 2.1-0.2c2.3-0.5 4.7-1 7.1-1.6 2.4-0.5 4.8-1.1 7.1-1.6 0.3-0.1 0.5-0.4 0.7-0.8 0.2-0.4 0.4-0.9 0.6-1.6 0.2-0.7 0.4-1.4 0.6-2.3 0.2-0.9 0.5-1.9 0.9-2.9l0.5-1.5c0.2-0.7 0.4-1.5 0.5-2.2 0.2-0.8 0.3-1.5 0.6-2.1 0.2-0.6 0.5-1.1 0.8-1.5 0.3-0.4 0.8-0.6 1.3-0.6 0.7 0 1.3 0.2 1.7 0.7 0.4 0.5 0.6 1.1 0.6 1.8 0 0.5-0.2 1.2-0.5 2.3-0.3 1.1-0.8 2.4-1.3 3.9-0.2 0.6-0.4 1.2-0.6 1.7-0.2 0.6-0.4 1.2-0.6 1.7-0.2 0.5-0.3 1-0.4 1.5-0.1 0.5-0.2 0.8-0.2 1.1 0 0.3 0 0.5 0.1 0.8 0.1 0.3 0.1 0.5 0.1 0.8 0 0.7-0.2 1.2-0.5 1.6s-0.8 0.9-1.4 1.3c0 0.1-0.1 0.3-0.1 0.5-0.1 0.2-0.1 0.5-0.2 0.8l-0.3 1.1c-0.2 0.8-0.4 1.6-0.5 2.4-0.1 0.8-0.3 1.6-0.4 2.4l-0.3 2.4c-0.1 0.8-0.3 1.6-0.5 2.3-0.1 0.3-0.2 0.6-0.4 0.8l-0.6 0.6c-0.2 0.2-0.5 0.3-0.8 0.4-0.3 0.1-0.5 0.1-0.7 0.1-0.3 0-0.6-0.1-0.9-0.2-0.2-0.2-0.4-0.3-0.5-0.6-0.1-0.2-0.2-0.4-0.3-0.7s-0.1-0.4-0.1-0.6c0-0.2 0-0.5 0.1-0.9s0.1-0.9 0.2-1.4c0.1-0.5 0.2-1.1 0.3-1.7 0.1-0.6 0.2-1.3 0.3-1.9 0.3-1.5 0.6-3.1 1-4.9h-0.3c-0.4 0-0.8 0-1.2 0.1-0.4 0.1-1 0.2-1.6 0.3-0.3 0.1-0.7 0.2-1.2 0.3-0.5 0.1-1.2 0.3-1.9 0.5s-1.5 0.4-2.3 0.6-1.6 0.4-2.4 0.7l-5.9 1.6c-0.3 0.6-0.5 1.2-0.8 1.8s-0.5 1.3-0.7 2c-0.2 0.7-0.4 1.3-0.6 2-0.2 0.7-0.3 1.3-0.5 1.9 0 0.2-0.1 0.3-0.3 0.5s-0.3 0.4-0.5 0.5c-0.2 0.2-0.4 0.3-0.6 0.4-0.2 0.1-0.4 0.2-0.6 0.2-0.3 0-0.6-0.1-0.8-0.2s-0.4-0.3-0.5-0.5c-0.1-0.2-0.2-0.5-0.3-0.8 0.2-0.2 0.2-0.5 0.2-0.8zM461.1 483.8c0-0.5 0.1-1 0.2-1.6 0.5-2 1.1-3.9 1.7-5.8 0.7-1.9 1.3-3.8 1.8-5.7s1-3.5 1.3-4.8c0.4-1.3 0.7-2.4 1-3.3 0.3-0.9 0.5-1.7 0.8-2.4 0.2-0.7 0.5-1.3 0.8-2l0.6-1.2c0.2-0.4 0.4-0.8 0.7-1.2 0.2-0.4 0.5-0.6 0.8-0.9 0.3-0.2 0.5-0.3 0.8-0.3 0.6 0 1.1 0.1 1.4 0.3 0.3 0.2 0.5 0.4 0.6 0.5l0.2 0.9c0.2 0 0.5-0.1 0.9-0.1 0.3-0.1 0.7-0.1 1.1-0.2 0.4-0.1 0.7-0.1 1-0.2 0.3-0.1 0.5-0.1 0.7-0.2 1-0.3 1.8-0.5 2.7-0.7s1.6-0.3 2.3-0.5l2.1-0.3c0.7-0.1 1.3-0.1 2-0.1s1.2 0 1.6 0.1c0.4 0.1 0.8 0.2 1 0.3 0.2 0.1 0.4 0.3 0.5 0.4 0.1 0.2 0.1 0.3 0.1 0.5s0 0.4-0.1 0.6c-0.1 0.2-0.3 0.4-0.5 0.6-0.2 0.2-0.5 0.3-0.9 0.5-0.4 0.1-0.8 0.2-1.3 0.3-0.1 0-0.4 0.1-0.9 0.2l-1.5 0.3c-0.5 0.1-1.1 0.2-1.6 0.3-0.5 0.1-0.8 0.2-1 0.2-0.1 0-0.3 0.1-0.6 0.2s-0.7 0.2-1.2 0.3c-0.5 0.1-1 0.3-1.5 0.4-0.5 0.2-1.1 0.3-1.6 0.5s-1 0.3-1.5 0.4c-0.5 0.1-0.8 0.3-1.1 0.3-0.9 0.3-1.6 0.8-2.1 1.4-0.5 0.6-0.9 1.2-1.2 1.9-0.1 0.1-0.1 0.4-0.3 0.7s-0.2 0.7-0.4 1.1c-0.1 0.4-0.3 0.8-0.4 1.3-0.2 0.5-0.3 0.9-0.5 1.3-0.1 0.4-0.3 0.8-0.4 1.1-0.1 0.3-0.2 0.6-0.2 0.7 0 0.1-0.1 0.3-0.1 0.4v0.3c0 0.1 0 0.1 0.1 0.1 0.2 0 0.7-0.1 1.4-0.3s1.5-0.4 2.4-0.7c0.9-0.3 1.9-0.6 3-0.9s2.1-0.6 3-0.9c1-0.3 1.8-0.5 2.6-0.7 0.8-0.2 1.3-0.3 1.6-0.3 0.5 0 0.9 0.1 1 0.3 0.2 0.2 0.3 0.4 0.3 0.6 0 0.5-0.2 1-0.6 1.4-0.4 0.4-0.8 0.7-1.4 1-0.2 0.1-0.5 0.2-1 0.4s-1 0.3-1.5 0.5-1.1 0.3-1.6 0.5-0.9 0.3-1.1 0.3c-1.4 0.6-2.6 1-3.5 1.4s-1.6 0.6-2.2 0.9-1 0.4-1.3 0.5-0.6 0.2-0.8 0.3c-0.3 0.1-0.5 0.2-0.8 0.2s-0.7 0.2-1.3 0.3c-0.1 0.3-0.3 0.8-0.5 1.4-0.2 0.6-0.3 1.3-0.5 1.9s-0.3 1.3-0.4 1.8-0.2 1-0.2 1.2c0 0.3 0 0.5 0.1 0.6l0.3 0.3c0.1 0 0.2 0.1 0.3 0.1h0.2c0.7 0 1.5-0.1 2.5-0.3s2-0.5 2.9-0.8c0.9-0.3 1.7-0.7 2.4-1 0.7-0.4 1.3-0.7 1.9-1.1s1.2-0.6 1.8-0.8c0.6-0.2 1.2-0.3 1.9-0.4h0.5c0.2 0 0.4 0.1 0.6 0.2s0.3 0.2 0.4 0.3c0.1 0.1 0.1 0.3 0.1 0.5-0.1 0.4-0.3 0.8-0.6 1.2s-0.8 0.8-1.4 1.2c-0.6 0.4-1.2 0.7-1.9 1.1-0.7 0.3-1.4 0.7-2.1 1l-2.1 0.9c-0.7 0.3-1.3 0.5-1.8 0.7-1.3 0.5-2.6 0.8-3.9 1s-2.4 0.3-3.4 0.3c-1.1 0-2-0.2-2.5-0.6-0.4-0.8-0.7-1.5-0.7-2.4zM494.9 458.9l0.3-1.2c0.1-0.4 0.3-0.8 0.5-1.2 0.2-0.4 0.5-0.7 0.9-0.9s0.8-0.4 1.3-0.4 1 0.1 1.4 0.4 0.8 0.6 1.1 0.9c0.4 0.2 0.7 0.8 1.1 1.5 0.3 0.8 0.7 1.7 1.1 2.8 0.4 1.1 0.8 2.4 1.2 3.8 0.4 1.4 0.9 2.9 1.4 4.4 0.5 1.5 1.1 3.1 1.7 4.7 0.6 1.6 1.4 3.2 2.2 4.7 0.1 0.2 0.3 0.5 0.5 0.8s0.4 0.6 0.5 0.9c0.2 0.3 0.3 0.5 0.5 0.7l0.3 0.3s0.1-0.1 0.2-0.3c0.1-0.2 0.1-0.5 0.2-0.8 0.1-0.3 0.1-0.6 0.2-0.9 0.1-0.3 0.2-0.6 0.2-0.8 0.3-0.7 0.6-1.4 0.9-2.3 0.3-0.9 0.7-1.9 1.1-3.1 0.4-1.2 0.8-2.7 1.3-4.4 0.5-1.7 1-3.7 1.6-6 0.1-0.6 0.3-1.2 0.5-1.9s0.3-1.5 0.5-2.2c0.2-0.8 0.3-1.5 0.4-2.2 0.1-0.7 0.2-1.3 0.2-1.9v-0.5c0-0.3 0-0.5 0.1-0.7 0-0.3 0.1-0.6 0.1-0.9 0.1-0.3 0.1-0.6 0.2-0.8 0.1-0.2 0.2-0.5 0.4-0.6s0.3-0.2 0.5-0.2 0.5 0 0.8 0.1c0.3 0.1 0.6 0.1 0.8 0.3 0.3 0.4 0.5 0.8 0.8 1.4 0.2 0.5 0.3 1.2 0.3 2.2 0 0.6-0.1 1.3-0.2 2-0.1 0.8-0.3 1.6-0.4 2.6-0.2 0.9-0.4 1.8-0.6 2.8s-0.5 1.9-0.7 2.8-0.5 1.7-0.7 2.4c-0.2 0.7-0.4 1.3-0.5 1.8-0.3 0.8-0.5 1.7-0.8 2.6-0.3 0.9-0.6 1.8-0.9 2.8-0.3 1-0.7 2-1.1 3.1-0.4 1.1-0.8 2.3-1.3 3.5-0.2 0.6-0.5 1.1-0.8 1.7-0.3 0.6-0.6 1.1-1 1.5s-0.8 0.8-1.2 1.1c-0.5 0.3-1 0.4-1.5 0.4-0.3 0-0.7 0-1-0.1-0.4-0.1-0.7-0.3-0.9-0.6-1.2-1.4-2.3-3-3.2-4.7-0.9-1.8-1.8-3.6-2.5-5.5s-1.4-3.9-2-5.8-1.1-3.8-1.6-5.6l-0.1-0.5c-0.1-0.2-0.1-0.4-0.2-0.6-0.1-0.2-0.1-0.4-0.2-0.6s-0.1-0.3-0.2-0.4-0.1-0.2-0.2-0.2-0.2 0.2-0.3 0.5c-0.1 0.3-0.3 0.7-0.4 1.1-0.1 0.4-0.3 0.8-0.4 1.2-0.1 0.4-0.2 0.6-0.2 0.7-0.1 0.4-0.3 0.9-0.5 1.6-0.2 0.7-0.4 1.5-0.7 2.4s-0.5 1.8-0.8 2.8c-0.3 1-0.6 1.9-0.9 2.9-0.3 0.9-0.5 1.8-0.8 2.6-0.2 0.8-0.5 1.4-0.6 1.9-0.1 0.4-0.3 0.9-0.5 1.5l-0.6 1.8c-0.2 0.6-0.4 1.2-0.5 1.6-0.2 0.5-0.3 0.8-0.3 1-0.2 0.6-0.4 1-0.8 1.3-0.3 0.3-0.7 0.4-1 0.4-0.2 0-0.4-0.1-0.7-0.2-0.2-0.2-0.4-0.3-0.6-0.6-0.2-0.2-0.3-0.5-0.4-0.7s-0.2-0.5-0.2-0.7c0-0.1 0-0.3 0.1-0.6s0.2-0.7 0.3-1.3l0.6-2.3 6.7-21.1zM523.5 483.8c0-0.5 0.1-1 0.2-1.6 0.5-2 1.1-3.9 1.7-5.8 0.7-1.9 1.3-3.8 1.8-5.7s1-3.5 1.3-4.8c0.4-1.3 0.7-2.4 1-3.3 0.3-0.9 0.5-1.7 0.8-2.4 0.2-0.7 0.5-1.3 0.8-2l0.6-1.2c0.2-0.4 0.4-0.8 0.7-1.2 0.2-0.4 0.5-0.6 0.8-0.9 0.3-0.2 0.5-0.3 0.8-0.3 0.6 0 1.1 0.1 1.4 0.3 0.3 0.2 0.5 0.4 0.6 0.5l0.2 0.9c0.2 0 0.5-0.1 0.9-0.1 0.3-0.1 0.7-0.1 1.1-0.2 0.4-0.1 0.7-0.1 1-0.2 0.3-0.1 0.5-0.1 0.7-0.2 1-0.3 1.8-0.5 2.7-0.7s1.6-0.3 2.3-0.5l2.1-0.3c0.7-0.1 1.3-0.1 2-0.1s1.2 0 1.6 0.1c0.4 0.1 0.8 0.2 1 0.3 0.2 0.1 0.4 0.3 0.5 0.4 0.1 0.2 0.1 0.3 0.1 0.5s0 0.4-0.1 0.6c-0.1 0.2-0.3 0.4-0.5 0.6-0.2 0.2-0.5 0.3-0.9 0.5-0.4 0.1-0.8 0.2-1.3 0.3-0.1 0-0.4 0.1-0.9 0.2l-1.5 0.3c-0.5 0.1-1.1 0.2-1.6 0.3-0.5 0.1-0.8 0.2-1 0.2-0.1 0-0.3 0.1-0.6 0.2s-0.7 0.2-1.2 0.3c-0.5 0.1-1 0.3-1.5 0.4-0.5 0.2-1.1 0.3-1.6 0.5s-1 0.3-1.5 0.4c-0.5 0.1-0.8 0.3-1.1 0.3-0.9 0.3-1.6 0.8-2.1 1.4-0.5 0.6-0.9 1.2-1.2 1.9-0.1 0.1-0.1 0.4-0.3 0.7s-0.2 0.7-0.4 1.1c-0.1 0.4-0.3 0.8-0.4 1.3-0.2 0.5-0.3 0.9-0.5 1.3-0.1 0.4-0.3 0.8-0.4 1.1-0.1 0.3-0.2 0.6-0.2 0.7 0 0.1-0.1 0.3-0.1 0.4v0.3c0 0.1 0 0.1 0.1 0.1 0.2 0 0.7-0.1 1.4-0.3s1.5-0.4 2.4-0.7c0.9-0.3 1.9-0.6 3-0.9s2.1-0.6 3-0.9c1-0.3 1.8-0.5 2.6-0.7 0.8-0.2 1.3-0.3 1.6-0.3 0.5 0 0.9 0.1 1 0.3 0.2 0.2 0.3 0.4 0.3 0.6 0 0.5-0.2 1-0.6 1.4-0.4 0.4-0.8 0.7-1.4 1-0.2 0.1-0.5 0.2-1 0.4s-1 0.3-1.5 0.5-1.1 0.3-1.6 0.5-0.9 0.3-1.1 0.3c-1.4 0.6-2.6 1-3.5 1.4s-1.6 0.6-2.2 0.9-1 0.4-1.3 0.5-0.6 0.2-0.8 0.3c-0.3 0.1-0.5 0.2-0.8 0.2s-0.7 0.2-1.3 0.3c-0.1 0.3-0.3 0.8-0.5 1.4-0.2 0.6-0.3 1.3-0.5 1.9s-0.3 1.3-0.4 1.8-0.2 1-0.2 1.2c0 0.3 0 0.5 0.1 0.6l0.3 0.3c0.1 0 0.2 0.1 0.3 0.1h0.2c0.7 0 1.5-0.1 2.5-0.3s2-0.5 2.9-0.8c0.9-0.3 1.7-0.7 2.4-1 0.7-0.4 1.3-0.7 1.9-1.1s1.2-0.6 1.8-0.8c0.6-0.2 1.2-0.3 1.9-0.4h0.5c0.2 0 0.4 0.1 0.6 0.2s0.3 0.2 0.4 0.3c0.1 0.1 0.1 0.3 0.1 0.5-0.1 0.4-0.3 0.8-0.6 1.2s-0.8 0.8-1.4 1.2c-0.6 0.4-1.2 0.7-1.9 1.1-0.7 0.3-1.4 0.7-2.1 1l-2.1 0.9c-0.7 0.3-1.3 0.5-1.8 0.7-1.3 0.5-2.6 0.8-3.9 1s-2.4 0.3-3.4 0.3c-1.1 0-2-0.2-2.5-0.6-0.4-0.8-0.7-1.5-0.7-2.4zM550.2 480.3l1.5 0.6c0.5 0.2 1.1 0.5 1.6 0.7 0.6 0.2 1.1 0.4 1.7 0.5 0.6 0.1 1.2 0.2 1.9 0.2 0.8 0 1.6-0.1 2.4-0.3 0.8-0.2 1.6-0.5 2.4-0.8s1.5-0.8 2.2-1.4c0.7-0.5 1.4-1.1 2-1.8 0.7-0.7 1.2-1.4 1.6-2 0.4-0.6 0.8-1.1 1.1-1.6s0.5-0.9 0.6-1.2c0.1-0.3 0.2-0.6 0.2-0.9 0-0.4-0.1-0.7-0.4-1-0.2-0.3-0.6-0.5-1-0.7-0.4-0.2-0.9-0.3-1.4-0.4s-1.1-0.1-1.6-0.1h-1.2c-0.5 0-0.9 0-1.4 0.1-0.5 0-0.9 0-1.4 0.1h-1.1c-0.5 0-1-0.1-1.5-0.2s-1-0.3-1.5-0.5-1-0.6-1.4-1-0.8-0.9-1-1.6c-0.1-0.2-0.2-0.4-0.2-0.7-0.1-0.3-0.1-0.6-0.1-0.9 0-0.3 0-0.7 0.1-1s0.1-0.6 0.2-0.9c0.2-0.7 0.5-1.5 1-2.2s1-1.5 1.7-2.2 1.4-1.4 2.2-2.1c0.8-0.7 1.6-1.3 2.4-1.9 0.8-0.6 1.6-1.1 2.4-1.6s1.5-0.9 2.2-1.2c1-0.5 1.9-0.8 2.9-1 1-0.2 2-0.3 3-0.3 0.6 0 1.1 0.1 1.7 0.2 0.5 0.2 1 0.4 1.4 0.7 0.4 0.3 0.7 0.7 1 1.1 0.2 0.4 0.3 0.9 0.3 1.5 0 0.3 0 0.6-0.1 0.8s-0.2 0.4-0.3 0.5-0.2 0.2-0.4 0.3c-0.1 0.1-0.3 0.1-0.4 0.1-0.4 0-0.8 0-1.1-0.1-0.3-0.1-0.6-0.2-1-0.3s-0.6-0.2-0.9-0.3-0.6-0.1-1-0.1c-1.1 0-2.2 0.2-3.3 0.6-1.1 0.4-2.2 1-3.3 1.6-1.1 0.7-2.1 1.4-3 2.2-0.9 0.8-1.8 1.6-2.5 2.4-0.4 0.4-0.7 0.8-0.9 1.2-0.2 0.4-0.3 0.8-0.3 1.2 0 0.5 0.2 1 0.7 1.3 0.5 0.3 1 0.5 1.7 0.5h1.3c0.5 0 1 0 1.5-0.1 0.5 0 1 0 1.5-0.1h1.3c0.9 0 1.8 0.1 2.6 0.4 0.8 0.3 1.6 0.6 2.2 1.1 0.6 0.5 1.2 1.1 1.5 1.8 0.4 0.7 0.6 1.6 0.6 2.5 0 0.6-0.1 1.2-0.3 1.8s-0.4 1.2-0.7 1.8c-0.3 0.6-0.7 1.2-1 1.8s-0.8 1.2-1.2 1.7c-0.8 1-1.7 2-2.6 2.9-1 0.9-2 1.7-3.1 2.4s-2.2 1.2-3.5 1.6c-1.2 0.4-2.5 0.6-3.7 0.6-0.6 0-1.1-0.1-1.7-0.2-0.6-0.1-1.2-0.3-1.7-0.4s-1.1-0.4-1.6-0.7c-0.5-0.3-0.9-0.6-1.3-1s-0.7-0.8-0.9-1.3c-0.2-0.5-0.3-1-0.3-1.5 0-0.3 0-0.5 0.1-0.8 0.1-0.2 0.3-0.4 0.6-0.4zM577.8 483.8c0-0.5 0.1-1 0.2-1.6 0.5-2 1.1-3.9 1.7-5.8 0.7-1.9 1.3-3.8 1.8-5.7s1-3.5 1.3-4.8c0.4-1.3 0.7-2.4 1-3.3 0.3-0.9 0.5-1.7 0.8-2.4s0.5-1.3 0.8-2l0.6-1.2c0.2-0.4 0.4-0.8 0.7-1.2 0.2-0.4 0.5-0.6 0.8-0.9 0.3-0.2 0.5-0.3 0.8-0.3 0.6 0 1.1 0.1 1.4 0.3 0.3 0.2 0.5 0.4 0.6 0.5l0.2 0.9c0.2 0 0.5-0.1 0.9-0.1 0.4-0.1 0.7-0.1 1.1-0.2 0.4-0.1 0.7-0.1 1-0.2 0.3-0.1 0.5-0.1 0.7-0.2 1-0.3 1.9-0.5 2.7-0.7 0.8-0.2 1.6-0.3 2.3-0.5s1.4-0.2 2.1-0.3c0.7-0.1 1.3-0.1 2-0.1s1.2 0 1.6 0.1c0.4 0.1 0.8 0.2 1 0.3 0.2 0.1 0.4 0.3 0.5 0.4 0.1 0.2 0.1 0.3 0.1 0.5s0 0.4-0.1 0.6c-0.1 0.2-0.3 0.4-0.5 0.6s-0.5 0.3-0.9 0.5c-0.3 0.1-0.8 0.2-1.3 0.3-0.1 0-0.4 0.1-0.9 0.2l-1.5 0.3c-0.6 0.1-1.1 0.2-1.6 0.3-0.5 0.1-0.8 0.2-1 0.2-0.1 0-0.3 0.1-0.6 0.2s-0.7 0.2-1.2 0.3c-0.5 0.1-1 0.3-1.5 0.4-0.5 0.2-1.1 0.3-1.6 0.5s-1 0.3-1.5 0.4-0.8 0.3-1.1 0.3c-0.9 0.3-1.6 0.8-2.1 1.4-0.5 0.6-0.9 1.2-1.2 1.9-0.1 0.1-0.1 0.4-0.3 0.7-0.1 0.3-0.2 0.7-0.4 1.1-0.1 0.4-0.3 0.8-0.4 1.3-0.2 0.5-0.3 0.9-0.5 1.3-0.1 0.4-0.3 0.8-0.4 1.1-0.1 0.3-0.2 0.6-0.2 0.7 0 0.1-0.1 0.3-0.1 0.4v0.3c0 0.1 0 0.1 0.1 0.1 0.2 0 0.7-0.1 1.4-0.3 0.7-0.2 1.5-0.4 2.4-0.7 0.9-0.3 1.9-0.6 3-0.9 1.1-0.3 2.1-0.6 3-0.9 1-0.3 1.8-0.5 2.6-0.7 0.8-0.2 1.3-0.3 1.6-0.3 0.5 0 0.9 0.1 1 0.3 0.2 0.2 0.3 0.4 0.3 0.6 0 0.5-0.2 1-0.6 1.4-0.4 0.4-0.8 0.7-1.4 1-0.2 0.1-0.5 0.2-1 0.4s-1 0.3-1.5 0.5-1.1 0.3-1.6 0.5-0.9 0.3-1.1 0.3c-1.4 0.6-2.6 1-3.5 1.4-0.9 0.4-1.6 0.6-2.2 0.9s-1 0.4-1.3 0.5c-0.3 0.1-0.6 0.2-0.8 0.3s-0.5 0.2-0.8 0.2c-0.3 0.1-0.7 0.2-1.3 0.3-0.1 0.3-0.3 0.8-0.5 1.4-0.2 0.6-0.3 1.3-0.5 1.9-0.2 0.7-0.3 1.3-0.4 1.8s-0.2 1-0.2 1.2c0 0.3 0 0.5 0.1 0.6l0.3 0.3c0.1 0.1 0.2 0.1 0.3 0.1h0.2c0.7 0 1.5-0.1 2.5-0.3s2-0.5 2.9-0.8c0.9-0.3 1.7-0.7 2.4-1 0.7-0.4 1.3-0.7 1.9-1.1 0.6-0.3 1.2-0.6 1.8-0.8 0.6-0.2 1.2-0.3 1.9-0.4h0.5c0.2 0 0.4 0.1 0.6 0.2s0.3 0.2 0.4 0.3c0.1 0.1 0.1 0.3 0.1 0.5-0.1 0.4-0.3 0.8-0.6 1.2s-0.8 0.8-1.4 1.2c-0.6 0.4-1.2 0.7-1.9 1.1s-1.4 0.7-2.1 1l-2.1 0.9c-0.7 0.3-1.3 0.5-1.8 0.7-1.3 0.5-2.6 0.8-3.9 1s-2.4 0.3-3.4 0.3c-1.1 0-2-0.2-2.5-0.6s-0.7-1.5-0.7-2.4z" fill="#FFFFFF" p-id="5155"></path></svg>