<?xml version="1.0" standalone="no"?><!DOCTYPE svg PUBLIC "-//W3C//DTD SVG 1.1//EN" "http://www.w3.org/Graphics/SVG/1.1/DTD/svg11.dtd"><svg t="1650011325634" class="icon" viewBox="0 0 1024 1024" version="1.1" xmlns="http://www.w3.org/2000/svg" p-id="8761" xmlns:xlink="http://www.w3.org/1999/xlink" width="200" height="200"><defs><style type="text/css">@font-face { font-family: element-icons; src: url("chrome-extension://moombeodfomdpjnpocobemoiaemednkg/fonts/element-icons.woff") format("woff"), url("chrome-extension://moombeodfomdpjnpocobemoiaemednkg/fonts/element-icons.ttf ") format("truetype"); }
</style></defs><path d="M898.288747 594.976C873.44608 379.061333 829.499413 224.288 690.011413 224.288c-70.698667 0-106.997333 72.608-170.058666 78.346667C454.98208 296.906667 420.592747 224.288 349.89408 224.288 210.40608 224.288 166.427413 379.061333 143.536747 593.066667 130.160747 707.712 141.627413 803.2 212.32608 803.2c99.36 0 103.178667-89.802667 173.866667-131.84 26.752-13.376 85.984-19.104 135.658666-21.013333 49.674667 1.909333 108.917333 7.637333 135.658667 21.013333 70.698667 42.037333 74.528 131.84 173.866667 131.84 68.789333 1.909333 78.336-93.632 66.88-208.277333z m-546.485334-19.104a99.36 99.36 0 1 1 0-198.72 98.677333 98.677333 0 0 1 99.36 99.36 99.893333 99.893333 0 0 1-99.36 99.36z m445.205334-80.256h-78.336v78.346667h-38.218667v-78.346667h-78.346667v-38.218667h78.346667v-76.373333h38.218667v76.373333h78.336z m0 0" fill="#1C87FF" p-id="8762"></path><path d="M294.491413 476.501333a55.008 55.008 0 0 0 17.194667 40.128 59.584 59.584 0 0 0 40.128 17.194667 54.986667 54.986667 0 0 0 40.128-17.194667 59.573333 59.573333 0 0 0 17.194667-40.128 54.997333 54.997333 0 0 0-17.194667-40.128 59.584 59.584 0 0 0-40.128-17.194666 54.997333 54.997333 0 0 0-40.128 17.194666 52.042667 52.042667 0 0 0-17.194667 40.128z m0 0" fill="#1C87FF" p-id="8763"></path></svg>