<?xml version="1.0" standalone="no"?><!DOCTYPE svg PUBLIC "-//W3C//DTD SVG 1.1//EN" "http://www.w3.org/Graphics/SVG/1.1/DTD/svg11.dtd"><svg t="1650011131732" class="icon" viewBox="0 0 1024 1024" version="1.1" xmlns="http://www.w3.org/2000/svg" p-id="3944" xmlns:xlink="http://www.w3.org/1999/xlink" width="200" height="200"><defs><style type="text/css">@font-face { font-family: element-icons; src: url("chrome-extension://moombeodfomdpjnpocobemoiaemednkg/fonts/element-icons.woff") format("woff"), url("chrome-extension://moombeodfomdpjnpocobemoiaemednkg/fonts/element-icons.ttf ") format("truetype"); }
</style></defs><path d="M81.388496 103.640245h505.34443c42.816069 0 77.827397 35.027701 77.827397 77.835583v505.508159c0 42.806859-35.011328 77.827397-77.827397 77.827397h-251.896551c-2.070144-40.648711-35.701035-72.976936-76.871631-72.976935-41.1532 0-74.783068 32.329248-76.854235 72.976935H81.388496c-42.798673 0-77.827397-35.020538-77.827398-77.827397V181.475828c-0.001023-42.807883 35.027701-77.835584 77.827398-77.835583z" fill="#1260e6" p-id="3945"></path><path d="M257.964744 617.219203c83.721629 0 151.584091 67.861438 151.584091 151.565671 0 83.713443-67.862462 151.575904-151.584091 151.575905-83.704233 0-151.566695-67.862462-151.566695-151.575905 0.001023-83.704233 67.862462-151.565671 151.566695-151.565671z m0 74.615246c-42.497821 0-76.942239 34.452604-76.942239 76.950425 0 42.507031 34.444418 76.960659 76.942239 76.960659 42.515218 0 76.960659-34.453628 76.960659-76.960659 0-42.497821-34.444418-76.950426-76.960659-76.950425zM768.584307 617.219203c83.704233 0 151.565671 67.861438 151.565671 151.565671 0 83.713443-67.861438 151.575904-151.565671 151.575905-83.721629 0-151.584091-67.862462-151.584091-151.575905 0-83.704233 67.861438-151.565671 151.584091-151.565671z m0 74.615246c-42.516241 0-76.960659 34.452604-76.960659 76.950425 0 42.507031 34.444418 76.960659 76.960659 76.960659 42.497821 0 76.942239-34.453628 76.942239-76.960659 0-42.497821-34.444418-76.950426-76.942239-76.950425z" fill="#1260e6" p-id="3946"></path><path d="M1007.518663 761.014926H882.448383c-7.097638 0-12.902842-5.815438-12.902842-12.912052v-68.464164c0-7.105824 5.806228-12.912052 12.902842-12.912052h125.07028c7.115034 0 12.921262 5.806228 12.921262 12.912052v68.464164c0 7.096614-5.806228 12.912052-12.921262 12.912052z" fill="#1260e6" p-id="3947"></path><path d="M664.5593 511.07084h305.204557v160.008954H664.5593zM644.859671 255.719615h112.165392v77.067082H644.859671z" fill="#1260e6" p-id="3948"></path><path d="M898.042515 470.290123h71.721342v49.410241h-71.721342z" fill="#1260e6" p-id="3949"></path><path d="M757.026086 255.719615L968.400815 470.290123l-70.3583 24.470272-161.425207-161.973698zM382.645145 533.452548h295.668386v231.358836H382.645145z" fill="#1260e6" p-id="3950"></path></svg>