<?xml version="1.0" standalone="no"?><!DOCTYPE svg PUBLIC "-//W3C//DTD SVG 1.1//EN" "http://www.w3.org/Graphics/SVG/1.1/DTD/svg11.dtd"><svg t="1650011307085" class="icon" viewBox="0 0 1024 1024" version="1.1" xmlns="http://www.w3.org/2000/svg" p-id="7818" xmlns:xlink="http://www.w3.org/1999/xlink" width="200" height="200"><defs><style type="text/css">@font-face { font-family: element-icons; src: url("chrome-extension://moombeodfomdpjnpocobemoiaemednkg/fonts/element-icons.woff") format("woff"), url("chrome-extension://moombeodfomdpjnpocobemoiaemednkg/fonts/element-icons.ttf ") format("truetype"); }
</style></defs><path d="M509.703758 767.472485a20.169697 20.169697 0 0 0-20.107637 20.123151v64.930909a20.169697 20.169697 0 0 0 20.107637 20.107637 20.169697 20.169697 0 0 0 20.107636-20.107637v-65.225697c0.294788-10.907152-8.905697-19.828364-20.107636-19.828363M688.981333 717.482667a20.014545 20.014545 0 0 0-14.072242-5.740606c-5.461333 0-10.348606 2.01697-14.36703 6.035394-3.723636 3.723636-6.035394 8.905697-6.035394 14.36703 0 5.445818 2.01697 10.333091 6.050909 14.36703l45.955879 45.955879c3.723636 3.739152 8.905697 6.050909 14.36703 6.050909 5.461333 0 10.348606-2.01697 14.36703-6.050909 7.757576-7.757576 7.757576-20.681697 0-28.439273l-46.266182-46.545454zM338.168242 711.742061c-5.461333 0-10.333091 2.01697-14.351515 6.035394l-45.986909 45.971393c-3.723636 3.723636-6.019879 8.905697-6.019879 14.367031 0 5.461333 2.01697 10.333091 6.019879 14.351515 3.739152 3.739152 8.905697 6.050909 14.36703 6.050909 5.461333 0 10.348606-2.01697 14.087758-5.756121l45.971394-45.971394c7.757576-7.757576 7.757576-20.681697 0-28.439273a17.37697 17.37697 0 0 0-14.087758-6.609454" fill="#444444" p-id="7819"></path><path d="M785.811394 553.425455a3.677091 3.677091 0 0 1-2.870303 1.148121H236.745697c-1.148121 0-2.01697-0.574061-2.870303-1.148121A3.692606 3.692606 0 0 1 232.727273 550.539636c1.722182-72.688485 31.325091-140.505212 83.316363-191.643151 52.286061-51.137939 120.971636-79.297939 193.939394-79.29794 72.983273 0 141.653333 28.16 193.939394 79.282425a275.843879 275.843879 0 0 1 83.331879 191.658666 13.451636 13.451636 0 0 1-1.442909 2.870303m-160.612849 53.154909C607.107879 654.273939 560.562424 686.452364 509.703758 686.452364c-50.858667 0-97.404121-32.178424-115.510303-79.872-0.574061-1.148121-0.279273-2.59103 0.57406-3.723637a4.111515 4.111515 0 0 1 3.459879-1.737697h223.526788c1.442909 0 2.59103 0.574061 3.444363 1.722182a5.430303 5.430303 0 0 1 0 3.739152m208.601213-56.025212A322.249697 322.249697 0 0 0 744.727273 333.622303a324.421818 324.421818 0 0 0-210.897455-100.274424c-2.01697-0.279273-3.723636-2.01697-3.723636-4.018424V179.339636A20.169697 20.169697 0 0 0 509.98303 159.216485a20.169697 20.169697 0 0 0-20.107636 20.123151v49.989819c0 2.01697-1.722182 4.033939-3.723636 4.033939-80.166788 6.019879-155.151515 41.363394-210.897455 100.258909A322.218667 322.218667 0 0 0 186.181818 550.555152v50.284606h158.875152c1.706667 0 3.444364 1.148121 4.033939 3.149575a166.555152 166.555152 0 0 0 161.171394 124.990061 166.322424 166.322424 0 0 0 161.186909-124.990061c0.574061-1.722182 2.01697-3.149576 4.018424-3.149575h158.875152v-49.710546c-0.558545 0-0.558545-0.294788-0.558546-0.57406" fill="#444444" p-id="7820"></path><path d="M785.811394 553.425455a3.677091 3.677091 0 0 1-2.870303 1.148121H236.745697c-1.148121 0-2.01697-0.574061-2.870303-1.148121A3.692606 3.692606 0 0 1 232.727273 550.555152c1.722182-72.688485 31.325091-140.505212 83.316363-191.643152 52.286061-51.137939 120.971636-79.282424 193.939394-79.282424 72.983273 0 141.653333 28.144485 193.939394 79.282424a275.843879 275.843879 0 0 1 83.331879 191.643152 13.451636 13.451636 0 0 1-1.442909 2.870303" fill="#F8D02D" p-id="7821"></path></svg>