<?xml version="1.0" standalone="no"?><!DOCTYPE svg PUBLIC "-//W3C//DTD SVG 1.1//EN" "http://www.w3.org/Graphics/SVG/1.1/DTD/svg11.dtd"><svg t="1650011349719" class="icon" viewBox="0 0 1024 1024" version="1.1" xmlns="http://www.w3.org/2000/svg" p-id="9577" xmlns:xlink="http://www.w3.org/1999/xlink" width="200" height="200"><defs><style type="text/css">@font-face { font-family: element-icons; src: url("chrome-extension://moombeodfomdpjnpocobemoiaemednkg/fonts/element-icons.woff") format("woff"), url("chrome-extension://moombeodfomdpjnpocobemoiaemednkg/fonts/element-icons.ttf ") format("truetype"); }
</style></defs><path d="M512 36.141176c68.266667 0 132.517647 27.105882 180.705882 75.294118L913.568627 331.294118c48.188235 48.188235 75.294118 112.439216 75.294118 180.705882S961.756863 644.517647 913.568627 692.705882L693.709804 913.568627c-48.188235 48.188235-112.439216 75.294118-180.705882 75.294118-68.266667 0-132.517647-27.105882-180.705883-75.294118l-220.862745-220.862745c-99.388235-99.388235-99.388235-262.023529 0-362.415686L331.294118 110.431373c48.188235-48.188235 112.439216-74.290196 180.705882-74.290197m0-30.117647c-73.286275 0-146.572549 28.109804-202.792157 83.325491L90.352941 309.207843a285.997176 285.997176 0 0 0 0 405.584314l219.858824 219.858823c56.219608 56.219608 129.505882 83.32549 202.792157 83.325491s146.572549-28.109804 202.792156-83.325491l219.858824-219.858823c111.435294-111.435294 111.435294-293.145098 0-404.580392l-220.862745-220.862745C658.572549 34.133333 585.286275 6.023529 512 6.023529z" fill="#575757" p-id="9578"></path><path d="M433.694118 363.419608v65.254902h-65.254902v-65.254902h65.254902m30.117647-60.235294H338.321569c-17.066667 0-30.117647 13.05098-30.117647 30.117647v125.490196c0 17.066667 13.05098 30.117647 30.117647 30.117647h125.490196c17.066667 0 30.117647-13.05098 30.117647-30.117647V333.301961c0-17.066667-13.05098-30.117647-30.117647-30.117647zM433.694118 579.262745v65.254902h-65.254902v-65.254902h65.254902m30.117647-60.235294H338.321569c-17.066667 0-30.117647 13.05098-30.117647 30.117647v125.490196c0 17.066667 13.05098 30.117647 30.117647 30.117647h125.490196c17.066667 0 30.117647-13.05098 30.117647-30.117647V549.145098c0-17.066667-13.05098-30.117647-30.117647-30.117647z" fill="#2396F4" p-id="9579"></path><path d="M658.572549 363.419608v65.254902H592.313725v-65.254902h66.258824m30.117647-60.235294H562.196078c-17.066667 0-30.117647 13.05098-30.117647 30.117647v125.490196c0 17.066667 13.05098 30.117647 30.117647 30.117647h125.490197c17.066667 0 30.117647-13.05098 30.117647-30.117647V333.301961c1.003922-17.066667-13.05098-30.117647-29.113726-30.117647z" fill="#E85F5B" p-id="9580"></path><path d="M654.556863 579.262745v65.254902h-65.254902v-65.254902h65.254902m30.117647-60.235294H559.184314c-17.066667 0-30.117647 13.05098-30.117647 30.117647v125.490196c0 17.066667 13.05098 30.117647 30.117647 30.117647h125.490196c17.066667 0 30.117647-13.05098 30.117647-30.117647V549.145098c0-17.066667-13.05098-30.117647-30.117647-30.117647z" fill="#2396F4" p-id="9581"></path></svg>